<svg width="31" height="53" viewBox="0 0 31 53" fill="none" xmlns="http://www.w3.org/2000/svg">
<g clip-path="url(#clip0_289:45)">
<path d="M30.3983 40.8552V47.8882L15.1377 52.7395L0.0449219 47.8882V40.8552L15.1529 45.3404L30.3983 40.8552Z" fill="#0000FF"/>
<path d="M24.4923 27.599V34.0674L18.1134 35.4252V22.6256H24.2176V17.164H18.1134V13.945C20.7229 12.8466 22.5542 10.2683 22.5542 7.26293C22.5542 3.25065 19.3037 0.0164109 15.3054 0.0164109C11.2919 0.00115509 8.04136 3.25065 8.04136 7.24768C8.04136 10.1463 9.73529 12.6482 12.1922 13.8077V17.1487H6.07274V22.6103H12.1922V35.3947L5.90488 34.0522V27.5837H-0.000976562V32.8012L0.0448053 32.8165V38.7052L15.1528 43.1904L30.3982 38.7052V27.5837H24.4923V27.599ZM15.3054 9.71912C13.9472 9.71912 12.8332 8.60545 12.8332 7.24768C12.8332 5.88991 13.9472 4.77623 15.3054 4.77623C16.6636 4.77623 17.7776 5.88991 17.7776 7.24768C17.7776 8.6207 16.6636 9.71912 15.3054 9.71912Z" fill="#FF931E"/>
</g>
<defs>
<clipPath id="clip0_289:45">
<rect width="30.3991" height="52.7394" fill="white"/>
</clipPath>
</defs>
</svg>
